<svg width="40" height="40" viewBox="0 0 40 40" fill="none" xmlns="http://www.w3.org/2000/svg">
<g clip-path="url(#clip0_1140_11328)">
<path d="M14.4593 8.98021C14.5691 9.56646 15.1507 10.0288 15.8367 9.90052C16.5028 9.76146 16.8816 9.12279 16.757 8.5224C16.6107 7.82427 15.9211 7.43537 15.2678 7.63021C14.6843 7.80435 14.3392 8.40693 14.4593 8.98021Z" fill="#FF3B30"/>
<path d="M39.7062 25.3489C33.3295 6.78702 33.7682 8.05877 33.7409 7.99557C33.0772 6.45936 31.7887 5.2651 30.2057 4.71892C29.9791 4.64071 17.1439 1.63829 16.773 1.50985C15.6354 1.11585 14.0548 1.33672 12.9453 2.35721L1.94583 12.4785C0.709238 13.6159 0 15.235 0 16.9208V34.844C0 36.9561 1.70919 38.6745 3.8101 38.6745H27.3424C29.4433 38.6745 31.1525 36.9561 31.1525 34.844V33.1116L37.7117 30.3045C39.6187 29.4792 40.5058 27.2644 39.7062 25.3489ZM27.3424 36.3307H3.8101C3.00157 36.3307 2.34381 35.6637 2.34381 34.844V16.9208C2.34381 15.8888 2.77711 14.8983 3.53267 14.2034C12.9564 5.53222 7.13152 10.9408 14.5696 4.08132C14.9575 3.72381 15.4931 3.58021 16.0243 3.74038C16.499 3.88218 15.6613 3.19981 27.62 14.2036C28.3754 14.8984 28.8087 15.8888 28.8087 16.9208V34.844C28.8086 35.6637 28.1508 36.3307 27.3424 36.3307ZM36.7851 28.1515L31.1524 30.5621V16.9208C31.1524 15.235 30.4432 13.6159 29.2067 12.4787L21.0153 4.94119L29.4923 6.95265C30.4176 7.28758 31.1719 7.98869 31.5725 8.88684C37.9371 27.4134 37.5077 26.1699 37.5356 26.234C37.8556 26.9737 37.517 27.8348 36.7851 28.1515Z" fill="#FF3B30"/>
<path d="M18.9039 15.8045C18.3073 15.554 17.6203 15.8349 17.3698 16.4317L11.6647 30.0289C11.3393 30.8047 11.9142 31.6546 12.7448 31.6546C13.2027 31.6546 13.6378 31.3845 13.826 30.9358L19.5311 17.3386C19.7815 16.7417 19.5007 16.0549 18.9039 15.8045Z" fill="#FF3B30"/>
<path d="M13.4108 19.182C13.4108 16.9202 11.7543 15.0801 9.71807 15.0801C7.68184 15.0801 6.02539 16.9202 6.02539 19.182C6.02539 21.4438 7.68192 23.2839 9.71815 23.2839C11.7544 23.2839 13.4108 21.4438 13.4108 19.182ZM9.71815 20.9401C8.98696 20.9401 8.3692 20.135 8.3692 19.182C8.3692 18.229 8.98688 17.4239 9.71815 17.4239C10.4494 17.4239 11.0671 18.229 11.0671 19.182C11.067 20.135 10.4493 20.9401 9.71815 20.9401Z" fill="#FF3B30"/>
<path d="M21.5443 24.377C19.5081 24.377 17.8516 26.2171 17.8516 28.4789C17.8516 30.7406 19.5081 32.5808 21.5443 32.5808C23.5806 32.5808 25.2371 30.7406 25.2371 28.4789C25.2371 26.2171 23.5805 24.377 21.5443 24.377ZM21.5443 30.237C20.8131 30.237 20.1954 29.4319 20.1954 28.4789C20.1954 27.5259 20.8131 26.7208 21.5443 26.7208C22.2756 26.7208 22.8933 27.5259 22.8933 28.4789C22.8933 29.4319 22.2755 30.237 21.5443 30.237Z" fill="#FF3B30"/>
</g>
<defs>
<clipPath id="clip0_1140_11328">
<rect width="40" height="40" fill="white"/>
</clipPath>
</defs>
</svg>
