<svg width="38" height="38" viewBox="0 0 38 38" fill="none" xmlns="http://www.w3.org/2000/svg">
<path d="M11.1376 6.86172C10.922 6.51319 10.4647 6.40513 10.116 6.62088L10.079 6.64381C9.73035 6.85934 9.62251 7.31675 9.83812 7.66543C9.97846 7.89247 10.2214 8.0173 10.47 8.0173C10.6032 8.0173 10.7381 7.98153 10.8597 7.90627L10.8967 7.88334C11.2454 7.66781 11.3531 7.2104 11.1376 6.86172Z" fill="#00FF84"/>
<path d="M37.6479 12.6537L19.3901 1.37249C19.151 1.22479 18.849 1.22479 18.6098 1.37249L12.4797 5.16024C12.131 5.37563 12.0229 5.83304 12.2384 6.18179C12.4539 6.53054 12.9112 6.63838 13.2599 6.423L19 2.87631L35.8459 13.2851L19 23.6939L9.89655 18.069L17.575 13.51C17.9615 13.8327 18.4584 14.0273 19 14.0273C20.2277 14.0273 21.2266 13.0285 21.2266 11.8007C21.2266 10.573 20.2277 9.57418 19 9.57418C17.7723 9.57418 16.7734 10.573 16.7734 11.8007C16.7734 11.9491 16.7884 12.094 16.8161 12.2343L8.47177 17.1887L2.15412 13.2851L8.00264 9.67141C8.35132 9.45602 8.45938 8.99869 8.24385 8.64986C8.02846 8.30118 7.57113 8.19327 7.22237 8.40865L0.352094 12.6537C0.133223 12.7889 0 13.0279 0 13.2851C0 13.5424 0.133223 13.7813 0.352094 13.9165L7.03171 18.0437L6.17077 18.5549C4.83661 19.3471 4.00781 20.8031 4.00781 22.3547V23.5269C3.16521 23.8316 2.56136 24.6394 2.56136 25.5858V26.8766C1.98862 27.4422 1.63281 28.2271 1.63281 29.0937V35.9961C1.63281 36.4059 1.96509 36.7382 2.375 36.7382H7.125C7.53491 36.7382 7.86719 36.4059 7.86719 35.9961V29.0937C7.86719 28.2271 7.51138 27.4422 6.93864 26.8767V25.5859C6.93864 24.6395 6.33479 23.8318 5.49219 23.527V22.3547C5.49219 21.3242 6.04259 20.3573 6.92862 19.8313L7.86719 19.274V26.4705C7.86719 26.8804 8.19946 27.2127 8.60938 27.2127C12.3481 27.2127 15.8501 28.683 18.4703 31.3526C18.6098 31.4948 18.8007 31.5749 19 31.5749C19.1993 31.5749 19.3901 31.4948 19.5297 31.3526C22.15 28.6829 25.652 27.2127 29.3906 27.2127C29.8005 27.2127 30.1328 26.8804 30.1328 26.4705V25.1601C30.1328 24.7503 29.8005 24.4179 29.3906 24.4179C28.9807 24.4179 28.6484 24.7503 28.6484 25.1601V25.7459C25.3623 25.9013 22.2716 27.0884 19.7422 29.1524V27.6042C19.7422 27.1944 19.4099 26.862 19 26.862C18.5901 26.862 18.2578 27.1944 18.2578 27.6042V29.1524C15.7284 27.0884 12.6377 25.9013 9.35156 25.7459V19.4772L18.6099 25.1977C18.7295 25.2716 18.8648 25.3086 19 25.3086C19.1352 25.3086 19.2706 25.2716 19.3901 25.1977L28.6484 19.4771V20.3112C28.6484 20.721 28.9807 21.0534 29.3906 21.0534C29.8005 21.0534 30.1328 20.721 30.1328 20.3112V18.5813C30.1328 18.5743 30.1319 18.5676 30.1318 18.5606L37.6479 13.9164C37.8668 13.7813 38 13.5423 38 13.285C38 13.0278 37.8668 12.7889 37.6479 12.6537ZM19 11.0586C19.4092 11.0586 19.7422 11.3915 19.7422 11.8007C19.7422 12.21 19.4092 12.5429 19 12.5429C18.5908 12.5429 18.2578 12.21 18.2578 11.8007C18.2578 11.3915 18.5908 11.0586 19 11.0586ZM4.04574 25.5858C4.04574 25.1975 4.36169 24.8816 4.75 24.8816C5.13831 24.8816 5.45426 25.1975 5.45426 25.5858V25.9765H4.04574V25.5858ZM6.38281 29.0937V35.2539H3.11719V29.0937C3.11719 28.1934 3.84965 27.4609 4.75 27.4609C5.65035 27.4609 6.38281 28.1934 6.38281 29.0937Z" fill="white"/>
<path d="M29.9154 22.0622C29.7773 21.9241 29.5858 21.8447 29.3906 21.8447C29.1954 21.8447 29.0039 21.9241 28.8659 22.0622C28.7279 22.2002 28.6484 22.3917 28.6484 22.5869C28.6484 22.7821 28.7279 22.9736 28.8659 23.1116C29.0039 23.2504 29.1954 23.3291 29.3906 23.3291C29.5858 23.3291 29.7773 23.2504 29.9154 23.1116C30.0534 22.9736 30.1328 22.7821 30.1328 22.5869C30.1328 22.3917 30.0534 22.2002 29.9154 22.0622Z" fill="#00FF84"/>
</svg>
