<svg width="38" height="38" viewBox="0 0 38 38" fill="none" xmlns="http://www.w3.org/2000/svg">
<path d="M37.2578 29.1674H36.5156V10.4643C36.5156 8.41803 34.8509 6.75333 32.8047 6.75333H30.5781V4.87988C30.5781 3.29404 29.288 2.00391 27.7021 2.00391H18.3132C16.7273 2.00391 15.4372 3.29404 15.4372 4.87988V6.75333H5.19531C3.14908 6.75333 1.48438 8.41803 1.48438 10.4643V29.1674H0.742188C0.332245 29.1674 0 29.4996 0 29.9096C0 33.2654 2.73015 35.9955 6.08594 35.9955H15.6602C16.0701 35.9955 16.4023 35.6633 16.4023 35.2533C16.4023 34.8434 16.0701 34.5111 15.6602 34.5111H6.08594C3.80139 34.5111 1.90012 32.8374 1.5441 30.6518H36.4559C36.0999 32.8374 34.1986 34.5111 31.9141 34.5111H22.3398C21.9299 34.5111 21.5977 34.8434 21.5977 35.2533C21.5977 35.6633 21.9299 35.9955 22.3398 35.9955H31.9141C35.2699 35.9955 38 33.2654 38 29.9096C38 29.4996 37.6678 29.1674 37.2578 29.1674ZM16.9216 4.87988C16.9216 4.11247 17.5458 3.48828 18.3132 3.48828H27.7021C28.4696 3.48828 29.0938 4.11247 29.0938 4.87988V11.726C29.0938 12.4931 28.4696 13.1176 27.7021 13.1176H20.7317C20.5348 13.1176 20.3461 13.1959 20.2069 13.335L19.0554 14.4863V13.8598C19.0554 13.4501 18.7231 13.1176 18.3132 13.1176C17.5458 13.1176 16.9216 12.4934 16.9216 11.726V4.87988ZM2.96875 10.4643C2.96875 9.23647 3.96751 8.2377 5.19531 8.2377H15.4372V9.72208H5.19531C4.78537 9.72208 4.45312 10.0543 4.45312 10.4643V29.1674H2.96875V10.4643ZM8.94771 29.1674V28.7256C8.94771 26.5155 10.7458 24.7177 12.9555 24.7177H13.2524V26.1279C13.2524 26.5376 13.5846 26.8701 13.9946 26.8701C14.4045 26.8701 14.7368 26.5376 14.7368 26.1279V24.7177H15.0336C17.2437 24.7177 19.0415 26.5155 19.0415 28.7256V29.1674H8.94771ZM15.9243 21.3037C15.9243 22.3677 15.0586 23.2334 13.9946 23.2334C12.9306 23.2334 12.0649 22.3677 12.0649 21.3037V20.812C12.0649 19.7477 12.9306 18.8823 13.9946 18.8823C15.0586 18.8823 15.9243 19.7477 15.9243 20.812V21.3037ZM20.5258 29.1674V28.7256C20.5258 26.2523 18.8823 24.1565 16.6305 23.4708C17.1164 22.8808 17.4086 22.1256 17.4086 21.3037V20.812C17.4086 18.9296 15.877 17.3979 13.9946 17.3979C12.1122 17.3979 10.5805 18.9296 10.5805 20.812V21.3037C10.5805 22.1256 10.8728 22.8808 11.3587 23.4708C9.10658 24.1565 7.46333 26.2523 7.46333 28.7256V29.1674H5.9375V11.2065H15.4372V11.726C15.4372 13.0553 16.3438 14.1769 17.571 14.5048V16.278C17.571 16.5783 17.7519 16.8488 18.0294 16.9636C18.121 17.0016 18.2175 17.0202 18.3132 17.0202C18.5063 17.0202 18.6962 16.9448 18.8379 16.8027L21.039 14.602H27.7021C29.288 14.602 30.5781 13.3118 30.5781 11.726V11.2065H32.0625V29.1674H20.5258ZM33.5469 29.1674V10.4643C33.5469 10.0543 33.2146 9.72208 32.8047 9.72208H30.5781V8.2377H32.8047C34.0325 8.2377 35.0312 9.23647 35.0312 10.4643V29.1674H33.5469Z" fill="black"/>
<path d="M20.6574 31.8389H17.3796C16.9697 31.8389 16.6375 32.1711 16.6375 32.5811C16.6375 32.991 16.9697 33.3232 17.3796 33.3232H20.6574C21.0674 33.3232 21.3996 32.991 21.3996 32.5811C21.3996 32.1711 21.0674 31.8389 20.6574 31.8389Z" fill="black"/>
<path d="M21.2704 11.1482C21.4933 11.2769 21.738 11.3413 21.9827 11.3413C22.2274 11.3413 22.4724 11.2769 22.6953 11.1482L25.486 9.53716C25.9322 9.27942 26.1987 8.81816 26.1987 8.30298C26.1987 7.7878 25.9322 7.32654 25.486 7.0688L22.6953 5.45773C22.2491 5.20029 21.7165 5.20029 21.2704 5.45773C20.8242 5.71547 20.5577 6.17673 20.5577 6.69191V9.91405C20.5577 10.4292 20.8242 10.8905 21.2704 11.1482ZM22.0421 6.79454L24.6546 8.30298L22.0421 9.81142V6.79454Z" fill="black"/>
<path d="M19 34.5117C18.8049 34.5117 18.6133 34.5903 18.4753 34.7283C18.3372 34.8672 18.2578 35.0579 18.2578 35.2539C18.2578 35.449 18.3372 35.6407 18.4753 35.7787C18.6133 35.9167 18.8049 35.9952 19 35.9952C19.1951 35.9952 19.3867 35.9167 19.5247 35.7787C19.6628 35.6398 19.7422 35.449 19.7422 35.2539C19.7422 35.0588 19.6628 34.8672 19.5247 34.7283C19.3867 34.5903 19.1951 34.5117 19 34.5117Z" fill="black"/>
</svg>
