<svg width="40" height="40" viewBox="0 0 40 40" fill="none" xmlns="http://www.w3.org/2000/svg">
<g clip-path="url(#clip0_1140_11341)">
<path d="M5.55007 33.1242C5.35378 33.1239 5.16 33.0801 4.98273 32.9958C4.80547 32.9114 4.64915 32.7888 4.52507 32.6367C1.43502 28.795 -0.127159 23.9473 0.138437 19.0242C0.404033 14.1011 2.47868 9.44958 5.96412 5.96259C9.44955 2.47561 14.1001 0.39889 19.0231 0.131105C23.9461 -0.136679 28.7945 1.42334 32.6376 4.51169C32.7908 4.6162 32.9205 4.75142 33.0187 4.90877C33.1168 5.06612 33.1812 5.24216 33.2076 5.4257C33.2341 5.60925 33.2221 5.79629 33.1724 5.97495C33.1227 6.15361 33.0364 6.31999 32.919 6.46351C32.8015 6.60704 32.6556 6.72458 32.4903 6.80866C32.325 6.89275 32.144 6.94154 31.9589 6.95195C31.7737 6.96236 31.5884 6.93415 31.4148 6.86912C31.2411 6.80409 31.0829 6.70365 30.9501 6.57419C27.6291 3.84013 23.4092 2.44034 19.1126 2.64754C14.8159 2.85474 10.7503 4.65409 7.70782 7.69502C4.66533 10.7359 2.8639 14.8006 2.65449 19.0972C2.44509 23.3937 3.84272 27.6143 6.57507 30.9367C6.73205 31.1321 6.83096 31.3677 6.86051 31.6166C6.89006 31.8655 6.84907 32.1177 6.74222 32.3445C6.63536 32.5712 6.46694 32.7634 6.25616 32.899C6.04537 33.0347 5.80071 33.1084 5.55007 33.1117V33.1242Z" fill="#FF3B30"/>
<path d="M19.9987 39.9993C15.7416 40.0084 11.5949 38.6452 8.17367 36.1118C8.01536 36.0155 7.87878 35.8874 7.7726 35.7355C7.66643 35.5837 7.59296 35.4114 7.55687 35.2296C7.52077 35.0479 7.52284 34.8606 7.56294 34.6797C7.60303 34.4988 7.68028 34.3282 7.78978 34.1787C7.89929 34.0292 8.03866 33.9041 8.19906 33.8114C8.35946 33.7186 8.53738 33.6601 8.72156 33.6397C8.90573 33.6194 9.09213 33.6375 9.26895 33.6929C9.44576 33.7483 9.60912 33.8399 9.74867 33.9618C12.7132 36.1605 16.3078 37.3441 19.9987 37.3368C24.5958 37.3335 29.0038 35.5058 32.2545 32.2551C35.5052 29.0044 37.3329 24.5965 37.3362 19.9993C37.347 16.3099 36.1679 12.7154 33.9737 9.74932C33.8604 9.60886 33.7767 9.44694 33.7277 9.27329C33.6787 9.09965 33.6653 8.91787 33.6883 8.73892C33.7114 8.55996 33.7704 8.38751 33.8618 8.23196C33.9533 8.07641 34.0752 7.94097 34.2204 7.83379C34.3655 7.72661 34.5309 7.64991 34.7065 7.60831C34.882 7.5667 35.0642 7.56105 35.242 7.5917C35.4198 7.62235 35.5896 7.68865 35.7411 7.78663C35.8926 7.88461 36.0228 8.01224 36.1237 8.16182C38.6551 11.5881 40.0141 15.7394 39.9987 19.9993C39.9987 25.3037 37.8915 30.3907 34.1408 34.1415C30.3901 37.8922 25.303 39.9993 19.9987 39.9993Z" fill="#FF3B30"/>
<path d="M17.4984 26.5256C16.7933 26.5223 16.118 26.2407 15.6194 25.7421C15.1208 25.2435 14.8392 24.5682 14.8359 23.8631V16.1506C14.8363 15.6828 14.9599 15.2233 15.1944 14.8185C15.4288 14.4137 15.7657 14.0778 16.1713 13.8446C16.5768 13.6114 17.0366 13.4892 17.5044 13.4902C17.9722 13.4913 18.4315 13.6156 18.8359 13.8506L25.4984 17.6881C25.9 17.9259 26.2328 18.2642 26.4639 18.6697C26.6951 19.0751 26.8166 19.5338 26.8166 20.0006C26.8166 20.4673 26.6951 20.926 26.4639 21.3315C26.2328 21.737 25.9 22.0753 25.4984 22.3131L18.8359 26.1506C18.4311 26.3917 17.9696 26.5211 17.4984 26.5256ZM17.4984 16.1631V23.8631L24.2109 20.0006L17.4984 16.1631Z" fill="#FF3B30"/>
</g>
<defs>
<clipPath id="clip0_1140_11341">
<rect width="40" height="40" fill="white"/>
</clipPath>
</defs>
</svg>
