<svg width="38" height="38" viewBox="0 0 38 38" fill="none" xmlns="http://www.w3.org/2000/svg">
<path d="M18.5369 13.6953C18.7321 13.6953 18.9235 13.616 19.0616 13.4779C19.2004 13.3398 19.2791 13.1483 19.2791 12.9531C19.2791 12.7579 19.2004 12.5664 19.0616 12.4285C18.9235 12.2904 18.7328 12.2109 18.5369 12.2109C18.3417 12.2109 18.1502 12.2904 18.0121 12.4285C17.8741 12.5664 17.7947 12.7579 17.7947 12.9531C17.7947 13.1483 17.8741 13.3398 18.0121 13.4779C18.1502 13.6159 18.3417 13.6953 18.5369 13.6953Z" fill="white"/>
<path d="M13.9353 13.6953C14.1305 13.6953 14.322 13.616 14.46 13.4779C14.5988 13.3398 14.6775 13.1483 14.6775 12.9531C14.6775 12.7579 14.5988 12.5664 14.46 12.4285C14.322 12.2904 14.1312 12.2109 13.9353 12.2109C13.7401 12.2109 13.5486 12.2904 13.4106 12.4285C13.2725 12.5664 13.1931 12.7579 13.1931 12.9531C13.1931 13.1483 13.2725 13.3398 13.4106 13.4779C13.5486 13.6159 13.7401 13.6953 13.9353 13.6953Z" fill="white"/>
<path d="M34.0043 15.3034C33.5944 15.3034 33.2621 15.6357 33.2621 16.0456C33.2621 16.4554 33.5944 16.7878 34.0043 16.7878C35.3891 16.7878 36.5156 17.9143 36.5156 19.2991V30.4418C36.5156 31.8266 35.3891 32.9531 34.0043 32.9531H16.5777C15.1929 32.9531 14.0664 31.8266 14.0664 30.4418V19.2991C14.0664 17.9143 15.1929 16.7878 16.5777 16.7878H27.3135C27.7234 16.7878 28.0557 16.4554 28.0557 16.0456C28.0557 15.6357 27.7234 15.3034 27.3135 15.3034H22.6822C22.7989 14.8057 22.8593 14.2951 22.8593 13.7754V10.69H23.7994C24.2093 10.69 24.5416 10.3577 24.5416 9.94784V7.38439C24.5417 3.31268 21.229 0 17.1572 0C15.0566 0 13.236 1.21852 12.3628 2.98537C9.96773 3.17864 8.07738 5.18811 8.07738 7.63214V9.72266C8.07738 10.0465 8.28749 10.3332 8.59646 10.4305C8.89423 10.5244 9.19645 10.5903 9.49993 10.6315V13.7754C9.49993 16.0661 10.6695 18.1811 12.5819 19.4042V19.9061H11.7039C5.25038 19.906 0 25.1564 0 31.6099V33.5469C0 36.0023 1.99767 38 4.45312 38H31.9636C32.3735 38 32.7058 37.6676 32.7058 37.2578C32.7058 36.848 32.3735 36.5156 31.9636 36.5156H31.2312C31.7451 35.9401 32.111 35.2286 32.27 34.4375H34.0043C36.2075 34.4375 38 32.645 38 30.4418V19.2991C38 17.0959 36.2075 15.3034 34.0043 15.3034ZM22.3965 34.4375V36.5156H18.0742V36.0898C18.0742 35.4838 17.901 34.9177 17.6021 34.4375H22.3965ZM17.1572 1.48438C20.4105 1.48438 23.0572 4.13109 23.0572 7.38439V9.20565H17.1572C15.0285 9.20565 13.2966 7.47375 13.2966 5.34494C13.2966 3.21627 15.0285 1.48438 17.1572 1.48438ZM9.56182 7.63214C9.56182 6.18183 10.5385 4.95611 11.8683 4.57588C11.832 4.82719 11.8122 5.08376 11.8122 5.34501C11.8122 6.4482 12.1483 7.47435 12.7232 8.3266C11.8373 9.03302 10.6816 9.33308 9.56182 9.14056V7.63214ZM10.9843 13.7754V10.6279C11.9792 10.4899 12.9294 10.0806 13.7173 9.43164C14.6477 10.216 15.8479 10.69 17.1572 10.69H21.3749V13.7754C21.3749 14.2991 21.2979 14.8111 21.1465 15.3034H16.5777C14.9091 15.3034 13.4768 16.3319 12.8796 17.788C11.6923 16.8111 10.9843 15.3465 10.9843 13.7754ZM4.45312 36.5156C2.81616 36.5156 1.48438 35.1838 1.48438 33.5469V31.6099C1.48438 25.9748 6.06887 21.3904 11.7039 21.3904H12.582V30.4418C12.582 30.9057 12.6623 31.351 12.8084 31.7656H7.49609C7.08618 31.7656 6.75391 32.098 6.75391 32.5078C6.75391 32.9176 7.08618 33.25 7.49609 33.25H12.582V36.5156H4.45312ZM14.0664 36.5156V34.4375H14.9375C15.8486 34.4375 16.5898 35.1787 16.5898 36.0898V36.5156H14.0664ZM23.8808 34.4375H26.7012V36.5156H23.8808V34.4375ZM28.1855 36.5024V34.4375H30.7397C30.3895 35.5632 29.3934 36.3909 28.1855 36.5024Z" fill="white"/>
<path d="M25.291 22.1055C23.7666 22.1055 22.5263 23.3457 22.5263 24.8702C22.5263 26.3947 23.7666 27.635 25.291 27.635C26.8155 27.635 28.0557 26.3947 28.0557 24.8702C28.0557 23.3457 26.8155 22.1055 25.291 22.1055ZM25.291 26.1506C24.585 26.1506 24.0107 25.5762 24.0107 24.8702C24.0107 24.1641 24.5851 23.5898 25.291 23.5898C25.997 23.5898 26.5714 24.1641 26.5714 24.8702C26.5714 25.5762 25.997 26.1506 25.291 26.1506Z" fill="white"/>
<path d="M30.6531 16.7873C30.849 16.7873 31.0405 16.7086 31.1785 16.5706C31.3166 16.4318 31.396 16.2411 31.396 16.0451C31.396 15.8499 31.3166 15.6592 31.1785 15.5204C31.0398 15.3824 30.849 15.3037 30.6531 15.3037C30.4579 15.3037 30.2664 15.3824 30.1283 15.5204C29.9903 15.6592 29.9109 15.8499 29.9109 16.0451C29.9109 16.2411 29.9903 16.4318 30.1283 16.5706C30.2664 16.7087 30.4579 16.7873 30.6531 16.7873Z" fill="white"/>
</svg>
